# Blender v2.90.1 OBJ File: ''
# www.blender.org
o Cube.002
v -2.149650 -0.167107 -1.962744
v -3.984241 0.433863 -1.886384
v -3.393517 0.622462 -3.944306
v -2.225234 0.690282 -4.609800
v -1.944592 0.043663 8.326846
v -1.970893 2.023756 9.466306
v -2.125934 2.018092 9.469363
v -2.077672 0.040322 8.329566
v -4.347279 2.457704 -2.436820
v -3.658186 2.648115 -4.836773
v -3.051805 -0.078224 6.287538
v -1.971427 -0.593981 6.232849
v -3.856655 0.001517 4.253705
v -2.013161 -0.605765 4.176771
v -4.178650 0.108608 2.210918
v -2.057608 -0.503611 2.127597
v -4.224194 0.256812 0.164533
v -2.103267 -0.350545 0.081507
v -3.263732 1.989285 7.096334
v -4.198854 1.964597 4.719108
v -4.574066 2.088501 2.338516
v -4.627091 2.259232 -0.046333
v -2.287570 2.702801 -5.193416
v -1.028818 0.681688 -3.992644
v -0.345843 0.524991 -1.960759
v -1.811512 0.046988 8.324125
v -1.815768 2.025860 9.463023
v -0.902514 2.717134 -4.893105
v -0.107316 2.563897 -2.523492
v -0.916879 -0.024752 6.243896
v -0.200763 0.093083 4.178973
v 0.031772 0.214062 2.124850
v -0.013771 0.362267 0.078465
v -0.775820 2.051598 7.045478
v 0.061497 2.071302 4.632019
v 0.332500 2.211391 2.238219
v 0.279473 2.382121 -0.146631
v -2.050786 0.074103 8.124022
v -2.090594 2.032163 9.191996
v -1.977257 2.037127 9.171362
v -1.949568 0.080096 8.128096
v -3.350071 0.637860 -3.742833
v -3.600373 2.640950 -4.573041
v -4.239988 2.451578 -2.298172
v -3.908102 0.459280 -1.786208
v -2.997410 -0.057602 6.140007
v -3.185200 1.995694 6.883048
v -3.785435 0.037597 4.144212
v -4.099881 1.972861 4.566657
v -4.096057 0.143687 2.176606
v -4.457962 2.094774 2.288835
v -4.140176 0.287325 0.199500
v -4.509042 2.259423 0.000790
v -2.221526 0.707082 -4.407825
v -2.281260 2.691721 -4.898334
v -1.863067 2.037862 9.187345
v -1.848427 0.079171 8.119885
v -0.208413 2.552553 -2.380584
v -0.949076 2.707354 -4.627239
v -1.064715 0.695099 -3.789550
v -0.419004 0.546668 -1.857531
v -0.863220 2.053850 6.835582
v -0.978218 -0.007029 6.098732
v -0.043909 2.074447 4.483747
v -0.278111 0.125442 4.072516
v 0.214296 2.211795 2.193326
v -0.053804 0.244930 2.093976
v 0.163585 2.376453 -0.094726
v -0.097712 0.388573 0.116865
v -2.207452 0.668561 -3.766517
v -3.350071 0.637860 -3.742833
v -3.908102 0.459280 -1.786208
v -2.163348 0.408274 -1.927882
v -1.985136 -0.018153 6.267737
v -2.997410 -0.057602 6.140007
v -2.050786 0.074103 8.124022
v -1.949568 0.080096 8.128096
v -2.026865 -0.030169 4.211646
v -3.785435 0.037597 4.144212
v -2.071309 0.071883 2.162465
v -4.096057 0.143687 2.176606
v -2.116967 0.224881 0.116371
v -4.140176 0.287325 0.199500
v -0.419004 0.546668 -1.857531
v -1.064715 0.695099 -3.789550
v -1.848427 0.079171 8.119885
v -0.978218 -0.007029 6.098732
v -0.278111 0.125442 4.072516
v -0.053804 0.244930 2.093976
v -0.097712 0.388573 0.116865
v 0.162429 1.886889 3.180426
v 0.014656 1.828796 4.081166
v 0.017250 1.719842 4.074565
v 0.165023 1.777936 3.173825
v -4.112308 1.725412 4.165858
v -4.109714 1.616458 4.159257
v -4.295897 1.775246 3.271232
v -4.293303 1.666291 3.264630
v -4.374044 2.027872 -0.916552
v -4.274701 2.085984 -1.836647
v -4.272071 1.975525 -1.843339
v -4.371415 1.917413 -0.923245
v -0.147459 2.189388 -1.921556
v -0.144830 2.078929 -1.928249
v -0.016465 2.136979 -1.005087
v -0.013836 2.026520 -1.011780
vt 0.293674 0.182356
vt 0.204974 0.120679
vt 0.204974 0.182356
vt 0.953620 0.316924
vt 0.941970 0.438678
vt 0.943623 0.316924
vt -0.166038 0.545104
vt -0.314257 0.334035
vt -0.092811 0.334035
vt 0.737173 0.175414
vt 0.648473 0.182356
vt 0.737173 0.182356
vt 0.648473 0.126672
vt 0.559774 0.182356
vt 0.559774 0.087002
vt 0.471074 0.182356
vt 0.471074 0.072539
vt 0.382374 0.182356
vt 0.293674 0.087459
vt 1.014421 0.334035
vt 0.866201 0.545104
vt 0.792975 0.334035
vt 0.608141 0.545104
vt 0.571528 0.334035
vt 0.350082 0.545104
vt 0.350082 0.334035
vt 0.128636 0.334035
vt 0.092022 0.545104
vt 1.109922 0.641039
vt 0.857075 0.343621
vt 1.074048 0.343621
vt 0.293674 0.796789
vt 0.204974 0.735112
vt 0.293674 0.701892
vt 0.965271 0.438678
vt 0.953620 0.438678
vt -0.215379 0.414336
vt -0.069900 0.621503
vt 0.001974 0.414336
vt 0.648473 0.796789
vt 0.737173 0.789847
vt 0.737173 0.796789
vt 0.559774 0.796789
vt 0.648473 0.741105
vt 0.471074 0.796789
vt 0.559774 0.701435
vt 0.382374 0.796789
vt 0.471074 0.686972
vt 0.382374 0.686972
vt 1.088739 0.414336
vt 0.943259 0.621503
vt 1.196548 0.621503
vt 0.871386 0.414336
vt 0.689969 0.621503
vt 0.654033 0.414336
vt 0.436680 0.621503
vt 0.219327 0.414336
vt 0.436680 0.414336
vt 0.183390 0.621503
vt 0.604228 0.641039
vt 0.640102 0.343621
vt 0.943623 0.316924
vt 0.953620 0.438678
vt 0.953620 0.316924
vt -0.314257 0.334035
vt -0.166038 0.545104
vt -0.092811 0.334035
vt 0.866201 0.545104
vt 1.014421 0.334035
vt 0.792975 0.334035
vt 0.608141 0.545104
vt 0.571528 0.334035
vt 0.350082 0.545104
vt 0.350082 0.334035
vt 0.128636 0.334035
vt 0.092022 0.545104
vt 0.857075 0.441597
vt 0.943336 0.543063
vt 0.931097 0.441597
vt 0.963618 0.316924
vt 0.006652 0.881113
vt -0.138828 0.673945
vt 0.078525 0.673945
vt 1.019810 0.881113
vt 1.165291 0.673945
vt 1.273100 0.881113
vt 0.766521 0.881113
vt 0.947938 0.673945
vt 0.513231 0.881113
vt 0.730585 0.673945
vt 0.295878 0.673945
vt 0.513231 0.673945
vt 0.259941 0.881113
vt 0.770814 0.543063
vt 0.783053 0.441597
vt 1.051290 0.150725
vt 1.020123 0.133367
vt 1.052279 0.129218
vt -0.302898 -0.207054
vt -0.550394 -0.110272
vt -0.579737 -0.118749
vt 0.781514 -0.033961
vt 0.756694 -0.023689
vt 0.512567 -0.167440
vt 0.494801 -0.154319
vt 0.243112 -0.225368
vt 0.236928 -0.209669
vt -0.023888 -0.222850
vt -0.028673 -0.239076
vt -0.287685 -0.192053
vt -0.556105 0.071836
vt -0.589258 0.070249
vt 1.018548 0.164931
vt 1.017275 0.149037
vt -0.331937 0.374680
vt -0.568560 0.253635
vt -0.315303 0.361214
vt 0.764386 0.309151
vt 1.050131 0.172249
vt 0.483411 0.416659
vt 0.740712 0.296494
vt 0.209528 0.447427
vt 0.467040 0.401811
vt -0.055888 0.418202
vt 0.204941 0.431136
vt -0.062268 0.433925
vt -0.598608 0.259282
vt -0.424098 0.545104
vt 0.382374 0.072539
vt 1.124261 0.545104
vt 0.857075 0.641039
vt 0.204974 0.796789
vt 0.963618 0.316924
vt -0.323190 0.621503
vt 0.941970 0.438678
vt -0.424098 0.545104
vt 1.124261 0.545104
vt 0.857075 0.543063
vt 0.965271 0.438678
vt -0.246638 0.881113
vt 1.618602 0.970222
vt 1.257380 0.458003
vt 1.618690 0.458003
vt -0.344480 0.458003
vt -0.704635 0.503358
vt -0.705790 0.458003
vt 0.055985 0.458003
vt -0.315739 0.910567
vt 0.456450 0.458003
vt 0.077427 1.244103
vt 0.856914 0.458003
vt 0.463189 1.363997
vt 1.237842 1.240017
vt 1.618602 -0.054215
vt 1.237842 -0.324011
vt -0.704635 0.412648
vt -0.315739 0.005440
vt 0.077427 -0.328095
vt 0.463189 -0.447990
vt 0.850103 -0.448037
vt 0.850103 1.364044
vt 0.745502 0.344724
vt 0.198211 0.278696
vt 0.198211 0.344724
vt 0.853459 0.679677
vt 0.142926 0.661807
vt 0.142926 0.679677
vt 0.745502 0.344724
vt 0.198211 0.278696
vt 0.745502 0.278696
vt 0.853459 0.679677
vt 0.142926 0.661807
vt 0.853459 0.661807
vt 0.216936 0.884696
vt 0.688018 0.796840
vt 0.216936 0.796840
vt 0.831606 0.398608
vt 0.164779 0.517215
vt 0.164779 0.398608
vt 0.745502 0.344724
vt 0.198211 0.278696
vt 0.198211 0.344724
vt 0.853459 0.679677
vt 0.142926 0.661807
vt 0.142926 0.679677
vt 0.745502 0.344724
vt 0.198211 0.278696
vt 0.745502 0.278696
vt 0.853459 0.679677
vt 0.142926 0.661807
vt 0.853459 0.661807
vt 0.216936 0.884696
vt 0.688018 0.796840
vt 0.216936 0.796840
vt 0.831606 0.398608
vt 0.164779 0.517215
vt 0.164779 0.398608
vt 0.745502 0.278696
vt 0.853459 0.661807
vt 0.198211 0.344724
vt 0.142926 0.679677
vt 0.688018 0.884696
vt 0.831606 0.517215
vt 0.745502 0.278696
vt 0.853459 0.661807
vt 0.198211 0.344724
vt 0.142926 0.679677
vt 0.688018 0.884696
vt 0.831606 0.517215
vn -0.1177 -0.9457 -0.3030
vn 0.0302 -0.4985 0.8663
vn -0.9259 -0.2445 -0.2882
vn 0.0300 -0.9563 0.2908
vn -0.4302 -0.9026 0.0139
vn -0.3141 -0.9485 -0.0405
vn -0.2791 -0.9580 -0.0654
vn -0.3133 -0.9465 -0.0778
vn -0.8665 -0.2564 0.4283
vn -0.9057 -0.2406 0.3490
vn -0.9689 -0.2027 0.1421
vn -0.9805 -0.1963 0.0076
vn -0.9691 -0.2088 -0.1314
vn -0.4333 -0.4102 -0.8025
vn 0.3519 -0.9167 -0.1890
vn 0.0251 -0.4984 0.8666
vn 0.9244 -0.1981 -0.3260
vn 0.0298 -0.9563 0.2908
vn 0.4750 -0.8800 -0.0046
vn 0.3593 -0.9316 -0.0542
vn 0.3238 -0.9429 -0.0778
vn 0.3201 -0.9388 -0.1270
vn 0.8972 -0.2188 0.3836
vn 0.9286 -0.1869 0.3206
vn 0.9828 -0.1537 0.1023
vn 0.9886 -0.1470 -0.0326
vn 0.9721 -0.1602 -0.1711
vn 0.4202 -0.3888 -0.8199
vn 0.0077 0.4705 -0.8824
vn 0.9305 0.2286 0.2862
vn 0.8709 0.2357 -0.4312
vn 0.9101 0.2240 -0.3487
vn 0.9716 0.1885 -0.1432
vn 0.9831 0.1829 -0.0087
vn 0.9721 0.1950 0.1305
vn 0.4498 0.3894 0.8038
vn -0.0672 0.4686 -0.8808
vn -0.9283 0.1820 0.3242
vn -0.9019 0.2015 -0.3821
vn -0.9315 0.1675 -0.3230
vn -0.9848 0.1400 -0.1026
vn -0.9906 0.1334 0.0317
vn -0.9745 0.1462 0.1703
vn -0.4355 0.3672 0.8219
vn -0.0356 0.9983 0.0461
vn -0.1024 0.9935 0.0494
vn -0.0543 0.9985 0.0100
vn -0.0612 0.9980 0.0143
vn -0.0291 0.9979 0.0580
vn -0.0304 0.9969 0.0720
vn -0.0434 0.9960 0.0776
vn -0.0299 0.9988 0.0381
vn -0.0128 0.9989 0.0456
vn -0.0101 0.9974 0.0720
vn 0.0545 0.9979 0.0341
vn 0.0034 1.0000 0.0093
vn -0.0452 0.9976 0.0533
vn -0.0241 0.9971 0.0723
vn -0.0134 0.9968 0.0790
vn -0.0185 0.9993 0.0335
vn -0.3131 -0.9334 -0.1754
vn 0.0353 -0.4981 0.8664
vn -0.9261 -0.2468 -0.2855
vn -0.4075 -0.8796 0.2455
vn -0.3085 -0.9474 0.0850
vn -0.2776 -0.9607 -0.0066
vn -0.2770 -0.9588 -0.0633
vn -0.2776 -0.9538 -0.1148
vn -0.8687 -0.2631 0.4197
vn -0.9042 -0.2328 0.3581
vn -0.9689 -0.2026 0.1422
vn -0.9805 -0.1965 0.0077
vn -0.9690 -0.2094 -0.1308
vn -0.2315 -0.2776 -0.9324
vn 0.1524 -0.9389 -0.3085
vn 0.9248 -0.2004 -0.3233
vn 0.4607 -0.8579 0.2277
vn 0.3588 -0.9307 0.0713
vn 0.3248 -0.9456 -0.0189
vn 0.3218 -0.9438 -0.0755
vn 0.3568 -0.9297 -0.0915
vn 0.8950 -0.2122 0.3922
vn 0.9301 -0.1946 0.3115
vn 0.9828 -0.1538 0.1022
vn 0.9886 -0.1471 -0.0325
vn 0.9722 -0.1608 -0.1705
vn 0.2069 -0.2666 -0.9414
vn -0.1781 0.4684 -0.8654
vn 0.9310 0.2329 0.2811
vn 0.8743 0.2460 -0.4184
vn 0.9079 0.2135 -0.3606
vn 0.9716 0.1890 -0.1426
vn 0.9831 0.1830 -0.0088
vn 0.9721 0.1954 0.1301
vn 0.2237 0.2402 0.9446
vn 0.1189 0.4758 -0.8715
vn -0.9292 0.1863 0.3192
vn -0.8985 0.1914 -0.3950
vn -0.9336 0.1778 -0.3110
vn -0.9848 0.1395 -0.1032
vn -0.9905 0.1336 0.0316
vn -0.9745 0.1466 0.1699
vn -0.1967 0.2297 0.9532
vn -0.0354 0.9983 0.0460
vn -0.0369 0.9967 0.0726
vn -0.1030 0.9940 0.0373
vn -0.0530 0.9985 0.0105
vn -0.0027 0.9986 0.0524
vn -0.0229 0.9971 0.0723
vn -0.0333 0.9963 0.0794
vn -0.0301 0.9990 0.0337
vn -0.0126 0.9989 0.0456
vn 0.0545 0.9974 0.0462
vn 0.0047 1.0000 0.0088
vn 0.0118 0.9998 0.0129
vn -0.0185 0.9982 0.0578
vn -0.0166 0.9973 0.0718
vn -0.0033 0.9970 0.0768
vn -0.0186 0.9991 0.0379
vn -0.0237 0.9898 0.1407
vn -0.0570 0.9970 -0.0516
vn -0.0383 0.9993 -0.0051
vn 0.0366 0.9981 0.0489
vn 0.0359 0.9966 0.0737
vn 0.0363 0.9954 0.0885
vn -0.0828 0.9911 0.1038
vn 0.0048 0.9986 -0.0528
vn -0.0120 0.9999 -0.0056
vn -0.0845 0.9951 0.0514
vn -0.0826 0.9937 0.0761
vn -0.0805 0.9924 0.0926
vn 0.0373 0.9941 0.1014
vn -0.0325 0.9982 -0.0508
vn 0.0372 0.9988 0.0329
vn 0.0357 0.9982 0.0482
vn 0.0337 0.9969 0.0717
vn 0.0344 0.9953 0.0902
vn -0.0202 0.9899 0.1406
vn -0.0196 0.9985 -0.0510
vn -0.0858 0.9957 0.0355
vn -0.0836 0.9952 0.0506
vn -0.0806 0.9940 0.0740
vn -0.0824 0.9924 0.0909
vn 0.9866 0.0136 0.1627
vn 0.0220 -0.0599 0.9980
vn -0.9794 -0.0354 0.1990
vn -0.0218 0.0599 -0.9980
vn 0.0238 -0.9979 -0.0605
vn -0.0238 0.9979 0.0605
vn -0.9940 -0.0171 -0.1084
vn -0.0220 0.0599 -0.9980
vn 0.9897 0.0320 -0.1396
vn 0.0218 -0.0600 0.9980
s off
f 1/1/1 3/2/1 4/3/1
f 5/4/2 7/5/2 8/6/2
f 9/7/3 3/8/3 2/9/3
f 8/10/4 12/11/4 5/12/4
f 11/13/5 14/14/5 12/11/5
f 13/15/6 16/16/6 14/14/6
f 15/17/7 18/18/7 16/16/7
f 18/18/8 2/19/8 1/1/8
f 8/20/9 19/21/9 11/22/9
f 11/22/10 20/23/10 13/24/10
f 13/24/11 21/25/11 15/26/11
f 21/25/12 17/27/12 15/26/12
f 22/28/13 2/9/13 17/27/13
f 10/29/14 4/30/14 3/31/14
f 1/32/15 24/33/15 25/34/15
f 5/4/16 27/35/16 6/36/16
f 24/37/17 29/38/17 25/39/17
f 12/40/18 26/41/18 5/42/18
f 14/43/19 30/44/19 12/40/19
f 16/45/20 31/46/20 14/43/20
f 18/47/21 32/48/21 16/45/21
f 18/47/22 25/34/22 33/49/22
f 26/50/23 34/51/23 27/52/23
f 30/53/24 35/54/24 34/51/24
f 31/55/25 36/56/25 35/54/25
f 33/57/26 36/56/26 32/58/26
f 25/39/27 37/59/27 33/57/27
f 4/30/28 28/60/28 24/61/28
f 38/62/29 40/63/29 41/64/29
f 42/65/30 44/66/30 45/67/30
f 47/68/31 38/69/31 46/70/31
f 49/71/32 46/70/32 48/72/32
f 51/73/33 48/72/33 50/74/33
f 52/75/34 51/73/34 50/74/34
f 45/67/35 53/76/35 52/75/35
f 54/77/36 43/78/36 42/79/36
f 40/63/37 57/80/37 41/64/37
f 58/81/38 60/82/38 61/83/38
f 62/84/39 57/85/39 56/86/39
f 64/87/40 63/88/40 62/84/40
f 66/89/41 65/90/41 64/87/41
f 66/89/42 69/91/42 67/92/42
f 68/93/43 61/83/43 69/91/43
f 59/94/44 54/77/44 60/95/44
f 6/96/45 39/97/45 7/98/45
f 9/99/46 43/100/46 10/101/46
f 19/102/47 39/97/47 47/103/47
f 20/104/48 47/103/48 49/105/48
f 21/106/49 49/105/49 51/107/49
f 21/106/50 53/108/50 22/109/50
f 22/109/51 44/110/51 9/99/51
f 10/101/52 55/111/52 23/112/52
f 6/96/53 56/113/53 40/114/53
f 29/115/54 59/116/54 58/117/54
f 34/118/55 56/113/55 27/119/55
f 35/120/56 62/121/56 34/118/56
f 36/122/57 64/123/57 35/120/57
f 36/122/58 68/124/58 66/125/58
f 37/126/59 58/117/59 68/124/59
f 28/127/60 55/111/60 59/116/60
f 1/1/61 2/19/61 3/2/61
f 5/4/62 6/36/62 7/5/62
f 9/7/63 10/128/63 3/8/63
f 8/10/64 11/13/64 12/11/64
f 11/13/65 13/15/65 14/14/65
f 13/15/66 15/17/66 16/16/66
f 15/17/67 17/129/67 18/18/67
f 18/18/68 17/129/68 2/19/68
f 8/20/69 7/130/69 19/21/69
f 11/22/70 19/21/70 20/23/70
f 13/24/71 20/23/71 21/25/71
f 21/25/72 22/28/72 17/27/72
f 22/28/73 9/7/73 2/9/73
f 10/29/74 23/131/74 4/30/74
f 1/32/75 4/132/75 24/33/75
f 5/4/2 26/133/2 27/35/2
f 24/37/76 28/134/76 29/38/76
f 12/40/77 30/44/77 26/41/77
f 14/43/78 31/46/78 30/44/78
f 16/45/79 32/48/79 31/46/79
f 18/47/80 33/49/80 32/48/80
f 18/47/81 1/32/81 25/34/81
f 26/50/82 30/53/82 34/51/82
f 30/53/83 31/55/83 35/54/83
f 31/55/84 32/58/84 36/56/84
f 33/57/85 37/59/85 36/56/85
f 25/39/86 29/38/86 37/59/86
f 4/30/87 23/131/87 28/60/87
f 38/62/88 39/135/88 40/63/88
f 42/65/89 43/136/89 44/66/89
f 47/68/90 39/137/90 38/69/90
f 49/71/91 47/68/91 46/70/91
f 51/73/92 49/71/92 48/72/92
f 52/75/93 53/76/93 51/73/93
f 45/67/94 44/66/94 53/76/94
f 54/77/95 55/138/95 43/78/95
f 40/63/96 56/139/96 57/80/96
f 58/81/97 59/140/97 60/82/97
f 62/84/98 63/88/98 57/85/98
f 64/87/99 65/90/99 63/88/99
f 66/89/100 67/92/100 65/90/100
f 66/89/101 68/93/101 69/91/101
f 68/93/102 58/81/102 61/83/102
f 59/94/103 55/138/103 54/77/103
f 6/96/104 40/114/104 39/97/104
f 9/99/105 44/110/105 43/100/105
f 19/102/106 7/98/106 39/97/106
f 20/104/107 19/102/107 47/103/107
f 21/106/108 20/104/108 49/105/108
f 21/106/109 51/107/109 53/108/109
f 22/109/110 53/108/110 44/110/110
f 10/101/111 43/100/111 55/111/111
f 6/96/112 27/119/112 56/113/112
f 29/115/113 28/127/113 59/116/113
f 34/118/114 62/121/114 56/113/114
f 35/120/115 64/123/115 62/121/115
f 36/122/116 66/125/116 64/123/116
f 36/122/117 37/126/117 68/124/117
f 37/126/118 29/115/118 58/117/118
f 28/127/119 23/112/119 55/111/119
f 71/141/120 73/142/120 70/143/120
f 74/144/121 76/145/121 77/146/121
f 78/147/122 75/148/122 74/144/122
f 80/149/123 79/150/123 78/147/123
f 82/151/124 81/152/124 80/149/124
f 72/153/125 82/151/125 73/142/125
f 85/154/126 73/142/126 84/155/126
f 86/156/127 74/144/127 77/146/127
f 87/157/128 78/147/128 74/144/128
f 88/158/129 80/149/129 78/147/129
f 89/159/130 82/151/130 80/149/130
f 84/155/131 82/151/131 90/160/131
f 71/141/132 72/153/132 73/142/132
f 74/144/133 75/148/133 76/145/133
f 78/147/134 79/150/134 75/148/134
f 80/149/135 81/152/135 79/150/135
f 82/151/136 83/161/136 81/152/136
f 72/153/137 83/161/137 82/151/137
f 85/154/138 70/143/138 73/142/138
f 86/156/139 87/157/139 74/144/139
f 87/157/140 88/158/140 78/147/140
f 88/158/141 89/159/141 80/149/141
f 89/159/142 90/160/142 82/151/142
f 84/155/143 73/142/143 82/151/143
f 92/162/144 94/163/144 91/164/144
f 95/165/145 93/166/145 92/167/145
f 95/168/146 98/169/146 96/170/146
f 97/171/147 94/172/147 98/173/147
f 93/174/148 98/175/148 94/176/148
f 97/177/149 92/178/149 91/179/149
f 100/180/150 102/181/150 99/182/150
f 103/183/151 101/184/151 100/185/151
f 103/186/152 106/187/152 104/188/152
f 105/189/153 102/190/153 106/191/153
f 101/192/148 106/193/148 102/194/148
f 105/195/149 100/196/149 99/197/149
f 92/162/144 93/198/144 94/163/144
f 95/165/145 96/199/145 93/166/145
f 95/168/146 97/200/146 98/169/146
f 97/171/147 91/201/147 94/172/147
f 93/174/148 96/202/148 98/175/148
f 97/177/149 95/203/149 92/178/149
f 100/180/150 101/204/150 102/181/150
f 103/183/151 104/205/151 101/184/151
f 103/186/152 105/206/152 106/187/152
f 105/189/153 99/207/153 102/190/153
f 101/192/148 104/208/148 106/193/148
f 105/195/149 103/209/149 100/196/149
